<svg width="26" height="26" viewBox="0 0 26 26" fill="none" xmlns="http://www.w3.org/2000/svg">
<path d="M7.58333 18.4167C9.0791 18.4167 10.2917 17.2041 10.2917 15.7083C10.2917 14.2126 9.0791 13 7.58333 13C6.08756 13 4.875 14.2126 4.875 15.7083C4.875 17.2041 6.08756 18.4167 7.58333 18.4167Z" stroke="#173D5A" stroke-width="1.5" stroke-linecap="round" stroke-linejoin="round"/>
<path d="M18.4166 18.4167C19.9124 18.4167 21.1249 17.2041 21.1249 15.7083C21.1249 14.2126 19.9124 13 18.4166 13C16.9208 13 15.7083 14.2126 15.7083 15.7083C15.7083 17.2041 16.9208 18.4167 18.4166 18.4167Z" stroke="#173D5A" stroke-width="1.5" stroke-linecap="round" stroke-linejoin="round"/>
<path d="M13.0001 7.58329C14.4959 7.58329 15.7084 6.37073 15.7084 4.87496C15.7084 3.37919 14.4959 2.16663 13.0001 2.16663C11.5043 2.16663 10.2917 3.37919 10.2917 4.87496C10.2917 6.37073 11.5043 7.58329 13.0001 7.58329Z" stroke="#173D5A" stroke-width="1.5" stroke-linecap="round" stroke-linejoin="round"/>
<path d="M13.0001 23.8333C13.0001 20.8418 10.5749 18.4166 7.58341 18.4166C4.59187 18.4166 2.16675 20.8418 2.16675 23.8333" stroke="#173D5A" stroke-width="1.5" stroke-linecap="round" stroke-linejoin="round"/>
<path d="M23.8333 23.8333C23.8333 20.8418 21.4082 18.4166 18.4167 18.4166C15.4252 18.4166 13 20.8418 13 23.8333" stroke="#173D5A" stroke-width="1.5" stroke-linecap="round" stroke-linejoin="round"/>
<path d="M18.4166 13C18.4166 10.0085 15.9914 7.58337 12.9999 7.58337C10.0084 7.58337 7.58325 10.0085 7.58325 13" stroke="#173D5A" stroke-width="1.5" stroke-linecap="round" stroke-linejoin="round"/>
</svg>
