<svg width="22" height="24" viewBox="0 0 22 24" fill="none" xmlns="http://www.w3.org/2000/svg">
<path d="M21.1775 23.7807L11.5737 18.8766C13.106 19.6711 14.9665 19.041 15.76 17.5068C16.0062 17.0136 16.1157 16.4657 16.0883 15.9177L15.6779 8.32867C17.128 7.39717 19.0433 7.80813 19.9736 9.23279C20.2198 9.61635 20.384 10.0821 20.4661 10.5479L21.1775 23.7807Z" fill="url(#paint0_linear_60_11213)"/>
<path d="M20.4933 10.5753C20.2745 8.87671 18.7149 7.64384 17.0185 7.86302C16.5533 7.91781 16.0882 8.08219 15.7052 8.35616L9.33002 12.4932C7.7978 11.726 7.19586 9.83562 7.96197 8.30137C8.20822 7.80822 8.5639 7.39726 9.02904 7.09589L19.9461 0L20.4933 10.5753Z" fill="url(#paint1_linear_60_11213)"/>
<path d="M11.5738 18.8766L0 12.9588L9.02916 7.09583C7.60639 8.02733 7.19597 9.97254 8.12625 11.3972C8.42722 11.863 8.83764 12.2191 9.33014 12.4657L16.1157 15.9177C16.1978 17.6438 14.8844 19.0958 13.1607 19.2054C12.6135 19.2602 12.0663 19.1232 11.5738 18.8766Z" fill="url(#paint2_linear_60_11213)"/>
<defs>
<linearGradient id="paint0_linear_60_11213" x1="15.8857" y1="21.0831" x2="21.7124" y2="9.66192" gradientUnits="userSpaceOnUse">
<stop stop-color="#D2DC28"/>
<stop offset="1" stop-color="#8CBC3F"/>
</linearGradient>
<linearGradient id="paint1_linear_60_11213" x1="7.45839" y1="6.63219" x2="20.2471" y2="5.96029" gradientUnits="userSpaceOnUse">
<stop stop-color="#8CBC3F"/>
<stop offset="1" stop-color="#D2DC28"/>
</linearGradient>
<linearGradient id="paint2_linear_60_11213" x1="4.98492" y1="9.73684" x2="11.9752" y2="20.4854" gradientUnits="userSpaceOnUse">
<stop stop-color="#D2DC28"/>
<stop offset="1" stop-color="#8CBC3F"/>
</linearGradient>
</defs>
</svg>
