<svg width="165" height="40" viewBox="0 0 165 40" fill="none" xmlns="http://www.w3.org/2000/svg">
<g clip-path="url(#clip0_237_13265)">
<path d="M17.9489 18.3562C17.5658 17.3425 16.9639 16.4109 16.1431 15.6712C15.1854 14.8493 14.0636 14.274 12.8324 14C11.1907 13.589 9.52167 13.3972 7.82528 13.4246H0V39.1781H5.63639V30.7123H7.79792C11.6285 30.7123 14.3646 30.0274 16.0062 28.6575C17.6479 27.2877 18.4961 25.0411 18.4688 21.9726C18.5235 20.7397 18.3319 19.5068 17.9489 18.3562ZM12.3672 24.137C12.2031 24.6301 11.8474 25.0685 11.4096 25.3151C10.9444 25.589 10.4519 25.7534 9.90472 25.8356C9.19333 25.9178 8.50931 25.9726 7.79792 25.9726H5.63639V18.3288H7.77056C9.49431 18.3288 10.7256 18.5753 11.4917 19.0959C12.2578 19.589 12.6408 20.6027 12.6408 22.0822C12.6682 22.7945 12.5861 23.4794 12.3672 24.137ZM36.0346 23.9726C35.9525 23.3699 35.761 22.7945 35.4874 22.2466C35.1864 21.726 34.8581 21.2329 34.4476 20.7945C33.9825 20.2466 33.4079 19.8356 32.7786 19.5616C31.9851 19.2329 31.1369 18.9589 30.2887 18.8219C29.2217 18.6027 28.1546 18.4931 27.0601 18.5205C25.0081 18.5205 23.0107 18.9589 21.1501 19.8082L20.4114 24.6849L24.5429 25.2603L24.7071 23.3698C25.4185 23.0137 26.2393 22.8219 27.0328 22.8219C27.58 22.8219 28.1272 22.9041 28.6471 23.0685C29.0575 23.1781 29.4406 23.3698 29.7962 23.6438C30.0972 23.9178 30.3161 24.274 30.4256 24.6849C30.5624 25.0959 30.6444 25.5342 30.6718 25.9726C30.6992 26.3835 30.7265 26.9041 30.7265 27.589H26.1572C20.6029 27.589 17.8394 29.6712 17.8394 33.863C17.7847 35.6712 18.6329 37.3973 20.1104 38.4383C21.6426 39.5342 23.7221 40.0822 26.4308 40.0822C28.6471 40 30.8086 39.3699 32.7512 38.274L36.2808 40.0548V27.5616C36.2808 26.7945 36.2808 26.1918 36.2535 25.7534C36.2261 25.1233 36.144 24.5479 36.0346 23.9726ZM30.7812 34.9041C29.5226 35.6712 28.0999 36.0548 26.6497 36.0548C25.8289 36.1096 25.0081 35.8904 24.324 35.4246C23.7494 34.9863 23.4485 34.274 23.5032 33.5616C23.5032 32.7123 23.7221 32.137 24.1872 31.8356C24.8439 31.5068 25.5553 31.3425 26.294 31.3699H30.7812V34.9041ZM77.6782 20.9589C77.0489 20.137 76.2007 19.5068 75.243 19.1233C74.0939 18.6575 72.89 18.4383 71.6587 18.4657C70.2086 18.4383 68.7585 18.6301 67.3631 19.0959C66.0497 19.589 64.8185 20.2466 63.6967 21.0411L60.2765 19.2877V39.1781H65.8308V24.8219C66.4328 24.3562 67.1168 24.0274 67.8556 23.7808C68.649 23.5068 69.4699 23.3425 70.2907 23.3425C71.5767 23.3425 72.5069 23.6986 73.0268 24.4383C73.6014 25.3699 73.9024 26.4383 73.8476 27.5342V39.1781H79.3472V26.8767C79.3746 25.7808 79.2378 24.6849 78.9642 23.6164C78.6906 22.6575 78.2528 21.7808 77.6782 20.9589ZM99.7586 21.2877C98.801 20.3562 97.6244 19.6164 96.3658 19.1781C94.9431 18.6849 93.4382 18.4383 91.9333 18.4657C90.4558 18.4383 88.9783 18.6849 87.5829 19.1781C86.3243 19.6164 85.1751 20.3562 84.2449 21.2877C83.2872 22.2466 82.5485 23.4247 82.0833 24.7123C81.5635 26.1918 81.2899 27.7534 81.3172 29.3151C81.2899 30.8767 81.5635 32.411 82.0833 33.8904C82.5485 35.1507 83.2872 36.3014 84.2175 37.2603C85.1751 38.1918 86.3243 38.9315 87.5829 39.3699C88.9783 39.863 90.4558 40.0822 91.9333 40.0822C93.4382 40.1096 94.943 39.863 96.3932 39.3699C97.6792 38.9315 98.8283 38.2466 99.8133 37.2877C100.771 36.3288 101.51 35.1781 101.975 33.9178C102.495 32.4657 102.768 30.9041 102.741 29.3425C102.768 27.7808 102.495 26.2192 101.975 24.7397C101.482 23.452 100.744 22.274 99.7586 21.2877ZM95.7639 34.0274C94.8336 35.1507 93.4108 35.7534 91.9607 35.6712C90.5106 35.7808 89.1151 35.1507 88.2122 34.0274C87.364 32.9315 86.9536 31.3425 86.9536 29.3151C86.9536 27.2603 87.364 25.6986 88.2122 24.6301C89.0604 23.5616 90.2917 23.0137 91.9607 23.0137C93.4108 22.9041 94.8336 23.5068 95.7639 24.6301C96.6121 25.6986 97.0499 27.2877 97.0499 29.3151C97.0499 31.3699 96.6668 32.9315 95.7912 34.0274H95.7639ZM118.857 19.0959C117.625 18.7123 116.339 18.4931 115.053 18.4657C113.193 18.4383 111.332 18.8767 109.691 19.7808C108.076 20.6575 106.763 21.9726 105.887 23.5616C104.93 25.2877 104.437 27.2329 104.465 29.2055C104.465 32.6027 105.422 35.2603 107.365 37.1781C109.308 39.0959 111.852 40.0548 115.053 40.0548C117.133 40.0548 119.185 39.452 120.909 38.3014L124.356 40.0548V7.94519L118.829 11.3698L118.857 19.0959ZM118.857 34.6575C117.735 35.3425 116.422 35.6712 115.108 35.6712C113.658 35.7534 112.235 35.0685 111.387 33.8904C110.457 32.4931 110.019 30.8219 110.101 29.1507C110.046 27.5616 110.539 26 111.497 24.7397C112.345 23.589 113.685 22.9315 115.136 22.9589C116.422 22.9315 117.707 23.2055 118.884 23.726V34.6575H118.857ZM137.052 18.4931C135.574 18.4657 134.097 18.7123 132.701 19.2055C131.443 19.6712 130.294 20.3835 129.363 21.3425C128.406 22.3288 127.667 23.4794 127.202 24.7671C126.682 26.2466 126.408 27.8082 126.436 29.3699C126.408 30.9315 126.655 32.4657 127.174 33.9452C127.64 35.2055 128.351 36.3562 129.309 37.2877C130.266 38.2192 131.415 38.9315 132.647 39.3699C134.042 39.863 135.52 40.0822 137.024 40.0822C140.144 40.1096 143.208 39.2877 145.889 37.6986L144.111 34.1918C141.84 35.0411 139.46 35.4794 137.024 35.452C133.987 35.452 132.373 34.0548 132.182 31.2877H145.944C146.136 30.3836 146.245 29.4794 146.218 28.5479C146.218 25.2329 145.424 22.7123 143.81 21.0137C142.278 19.3425 140.007 18.4931 137.052 18.4931ZM132.373 27.1507C132.565 26 133.084 24.9315 133.823 24.0548C134.48 23.4246 135.547 23.0959 137.079 23.0959C139.733 23.0959 141.074 24.4383 141.074 27.1507H132.373ZM55.5431 13.2055C55.2147 12.8767 54.8317 12.6301 54.3939 12.4383C53.9835 12.2466 53.5457 12.1644 53.1079 12.1644C52.6428 12.1644 52.205 12.274 51.7946 12.4383C51.3842 12.6301 51.0285 12.8767 50.7275 13.2055C50.4539 13.4794 50.235 13.8082 50.0708 14.1644C50.0435 14.2192 49.9888 14.274 49.9614 14.3288C49.7699 14.7397 49.6878 15.2055 49.6878 15.6438C49.6878 16.1096 49.7699 16.5753 49.9614 16.9863C50.1529 17.3972 50.3992 17.7808 50.7275 18.0822C51.0285 18.3835 51.4115 18.6301 51.7946 18.7945C52.6428 19.1507 53.6004 19.1507 54.476 18.7945C54.8864 18.6301 55.2694 18.3561 55.5704 18.0274C55.8167 17.7808 56.0082 17.4794 56.1724 17.1781C56.2271 17.0959 56.2818 17.0137 56.3092 16.9315C56.5007 16.5205 56.5828 16.0548 56.5828 15.589C56.5828 15.1233 56.5007 14.6849 56.3092 14.274C56.145 13.8904 55.8714 13.5342 55.5431 13.2055ZM50.3718 21.1781H55.9261V39.2055H50.3718V21.1781ZM40.4397 9.17807V39.1781H45.994V12L40.4397 9.17807Z" fill="#014764"/>
<path d="M163.483 10.5479L162.908 0L152.018 7.09589L142.989 12.9589L154.563 18.8767L164.167 23.7808L163.483 10.5479ZM152.319 12.4658L158.695 8.32876L159.105 15.9452L152.319 12.4658Z" fill="#B3D334"/>
<path d="M164.167 23.7534L154.563 18.8493C156.095 19.6438 157.956 19.0137 158.749 17.4794C158.995 16.9863 159.105 16.4383 159.078 15.8904L158.667 8.30133C160.117 7.36982 162.033 7.78079 162.963 9.20544C163.209 9.589 163.373 10.0548 163.455 10.5205L164.167 23.7534Z" fill="url(#paint0_linear_237_13265)"/>
<path d="M163.483 10.548C163.264 8.84937 161.704 7.6165 160.008 7.83567C159.543 7.89047 159.077 8.05485 158.694 8.32882L152.319 12.4658C150.787 11.6987 150.185 9.80828 150.951 8.27403C151.197 7.78088 151.553 7.36992 152.018 7.06854L162.935 -0.0273438L163.483 10.548Z" fill="url(#paint1_linear_237_13265)"/>
<path d="M154.563 18.8493L142.989 12.9315L152.018 7.06848C150.596 7.99999 150.185 9.9452 151.116 11.3699C151.416 11.8356 151.827 12.1918 152.319 12.4383L159.105 15.8904C159.187 17.6164 157.874 19.0685 156.15 19.1781C155.603 19.2329 155.056 19.0959 154.563 18.8493Z" fill="url(#paint2_linear_237_13265)"/>
</g>
<defs>
<linearGradient id="paint0_linear_237_13265" x1="158.875" y1="21.0558" x2="164.702" y2="9.63457" gradientUnits="userSpaceOnUse">
<stop stop-color="#D2DC28"/>
<stop offset="1" stop-color="#8CBC3F"/>
</linearGradient>
<linearGradient id="paint1_linear_237_13265" x1="150.448" y1="6.60485" x2="163.236" y2="5.93295" gradientUnits="userSpaceOnUse">
<stop stop-color="#8CBC3F"/>
<stop offset="1" stop-color="#D2DC28"/>
</linearGradient>
<linearGradient id="paint2_linear_237_13265" x1="147.974" y1="9.7095" x2="154.965" y2="20.458" gradientUnits="userSpaceOnUse">
<stop stop-color="#D2DC28"/>
<stop offset="1" stop-color="#8CBC3F"/>
</linearGradient>
<clipPath id="clip0_237_13265">
<rect width="164.167" height="40" fill="white"/>
</clipPath>
</defs>
</svg>
